<?xml version="1.0" encoding="UTF-8"?>
<svg width="32px" height="32px" viewBox="0 0 32 32" version="1.1" xmlns="http://www.w3.org/2000/svg" xmlns:xlink="http://www.w3.org/1999/xlink">
    <!-- Generator: Sketch 55.1 (78136) - https://sketchapp.com -->
    <title>Rectangle@1x</title>
    <desc>Created with Sketch.</desc>
    <g id="svg-announce" stroke="none" stroke-width="1" fill="none" fill-rule="evenodd">
        <g id="svg-announce" transform="translate(-62.000000, -10.000000)" fill="#CCCCCC" fill-rule="nonzero">
            <g id="通知" transform="translate(68.000000, 14.000000)">
                <path d="M2.41452991,17.96875 L2.41452991,10.15625 C2.41452991,6.3765625 4.92545299,3.22421875 8.26068376,2.5 L8.26068376,1.5625 C8.26068376,0.69921875 8.91472222,0 9.72222222,0 C10.5297222,0 11.1837607,0.69921875 11.1837607,1.5625 L11.1837607,2.5 C14.5189915,3.22421875 17.0299145,6.3765625 17.0299145,10.15625 L17.0299145,17.96875 L17.7628761,17.96875 C18.5689145,17.96875 19.2222222,18.6625 19.2222222,19.53125 C19.2222222,20.3945312 18.5681838,21.09375 17.7628761,21.09375 L1.68156838,21.09375 C0.875529915,21.09375 0.222222222,20.4 0.222222222,19.53125 C0.222222222,18.6679688 0.876260684,17.96875 1.68156838,17.96875 L2.41452991,17.96875 Z M11.9145299,22.65625 C11.9145299,23.9507813 10.9331068,25 9.72222222,25 C8.51133761,25 7.52991453,23.9507813 7.52991453,22.65625 L11.9145299,22.65625 Z" id="Shape"></path>
            </g>
        </g>
    </g>
</svg>
