<?xml version="1.0" encoding="UTF-8"?>
<svg width="32px" height="32px" viewBox="0 0 32 32" version="1.1" xmlns="http://www.w3.org/2000/svg" xmlns:xlink="http://www.w3.org/1999/xlink">
    <!-- Generator: Sketch 55.1 (78136) - https://sketchapp.com -->
    <title>Rectangle@1x</title>
    <desc>Created with Sketch.</desc>
    <g id="Page-1" stroke="none" stroke-width="1" fill="none" fill-rule="evenodd">
        <g id="Artboard" transform="translate(-16.000000, -62.000000)" fill="#1983FF" fill-rule="nonzero">
            <g id="chat" transform="translate(20.000000, 67.000000)">
                <path d="M11.9911189,0 C5.336184,0 0.0322689086,4.88887763 0.0322689086,10.9251408 C0.0322689086,12.8208652 0.582662727,14.6167774 1.48335105,16.2131663 C1.63344459,16.4625704 1.68347577,16.7618806 1.58341341,17.0612162 L0.0322689086,21.3015925 C-0.117850046,21.7006898 0.282450227,22.0498808 0.6827505,21.9501192 L4.98594032,20.3038495 C5.23612164,20.2040878 5.53633414,20.2539433 5.83657205,20.4036364 C7.63789786,21.4013542 9.78949277,22 12.0911812,22 C18.6460537,21.9500938 24,17.111097 24,11.0249531 C23.9499688,4.8888523 18.5959971,0 11.9911189,0 Z M5.98666559,12.970533 C4.88585254,12.970533 3.98518964,12.0725516 3.98518964,10.9750469 C3.98518964,9.87754223 4.88585254,8.97956082 5.986691,8.97956082 C7.08752945,8.97956082 7.98816695,9.87754223 7.98816695,10.9750469 C7.98816695,12.0725516 7.08747864,12.970533 5.98666559,12.970533 Z M11.9911189,12.970533 C10.8903058,12.970533 9.9896175,12.0725516 9.9896175,10.9750469 C9.9896175,9.87754223 10.8903058,8.97956082 11.9911189,8.97956082 C13.0919319,8.97956082 13.9926202,9.87754223 13.9926202,10.9750469 C13.9926202,12.0725516 13.0919319,12.970533 11.9911189,12.970533 Z M17.9955721,12.970533 C16.8947591,12.970533 15.9940708,12.0725516 15.9940708,10.9750469 C15.9940708,9.87754223 16.8947591,8.97956082 17.9955721,8.97956082 C19.0963852,8.97956082 19.9970481,9.87754223 19.9970481,10.9750469 C19.9970481,12.0725516 19.0963852,12.970533 17.9955467,12.970533 L17.9955721,12.970533 Z" id="Shape"></path>
            </g>
        </g>
    </g>
</svg>