<?xml version="1.0" encoding="UTF-8"?>
<svg width="32px" height="32px" viewBox="0 0 32 32" version="1.1" xmlns="http://www.w3.org/2000/svg" xmlns:xlink="http://www.w3.org/1999/xlink">
    <!-- Generator: Sketch 55.1 (78136) - https://sketchapp.com -->
    <title>Rectangle@1x</title>
    <desc>Created with Sketch.</desc>
    <g id="Page-1" stroke="none" stroke-width="1" fill="none" fill-rule="evenodd">
        <g id="Artboard" transform="translate(-160.000000, -62.000000)" fill="#1983FF" fill-rule="nonzero">
            <g id="me" transform="translate(165.000000, 65.000000)">
                <path d="M7.67724295,12.0340732 C8.54287469,13.1499884 11.9077154,15.2232359 14.7057348,11.8513021 C15.9689146,10.1532098 16.6498423,7.32325354 16.5004526,5.51183435 C16.5946136,4.39183061 15.8506954,0.852637498 12.6932562,0.167214557 C7.03209327,-0.898887936 6.00473346,3.45047815 5.85129279,4.24875977 C5.69738827,5.0471038 5.48908993,9.28910434 7.67724295,12.0340732 Z M3.0962875,16.9194244 C10.4077571,12.375427 18.5776534,16.0927721 19.4043529,17.3325633 C20.2772825,18.2373366 22.6858866,20.2159838 21.8120912,25.9595104 C17.5775059,25.8800162 1.45869024,26.039067 0.230824722,25.9906277 C-0.311536408,22.9212525 -0.0992180591,19.5570278 3.0962875,16.9194244 Z" id="Shape"></path>
            </g>
        </g>
    </g>
</svg>